HIERARCHY
ROOT hips
{
  OFFSET 0 10.6860622 2.3727825e-15
  CHANNELS 6 Xposition Yposition Zposition Yrotation Xrotation Zrotation
  JOINT leftUpperLeg
  {
    OFFSET 0.6642549969 -0.9402397400000004 0
    CHANNELS 3 Yrotation Xrotation Zrotation
    JOINT leftLowerLeg
    {
      OFFSET 0 -3.997221335632195 0
      CHANNELS 3 Yrotation Xrotation Zrotation
      JOINT leftFoot
      {
        OFFSET -0.13777839790000004 -4.6145792000000005 -0.22186036399999998
        CHANNELS 3 Yrotation Xrotation Zrotation
        JOINT leftToes
        {
          OFFSET -0.03777410834999995 -0.9130806927000008 0.85230013
          CHANNELS 3 Yrotation Xrotation Zrotation
          End Site
          {
            OFFSET -0.03777410834999995 -0.9130806927000008 0.85230013
          }
        }
      }
    }
  }
  JOINT rightUpperLeg
  {
    OFFSET -0.6642778626 -0.9402397400000004 0
    CHANNELS 3 Yrotation Xrotation Zrotation
    JOINT rightLowerLeg
    {
      OFFSET 0 -3.997221452859387 0
      CHANNELS 3 Yrotation Xrotation Zrotation
      JOINT rightFoot
      {
        OFFSET 0.1377926176 -4.6145792000000005 -0.22185782299999995
        CHANNELS 3 Yrotation Xrotation Zrotation
        JOINT rightToes
        {
          OFFSET 0.037780746850000047 -0.9130806927000008 0.85230167
          CHANNELS 3 Yrotation Xrotation Zrotation
          End Site
          {
            OFFSET 0.037780746850000047 -0.9130806927000008 0.85230167
          }
        }
      }
    }
  }
  JOINT spine
  {
    OFFSET 0 0.13988381660000015 0
    CHANNELS 3 Yrotation Xrotation Zrotation
    JOINT chest
    {
      OFFSET 0 0.6191039003973773 0
      CHANNELS 3 Yrotation Xrotation Zrotation
      JOINT upperChest
      {
        OFFSET 0 0.9855186130586943 0
        CHANNELS 3 Yrotation Xrotation Zrotation
        JOINT leftShoulder
        {
          OFFSET 0.1807663869 1.5087829790000005 0
          CHANNELS 3 Yrotation Xrotation Zrotation
          JOINT leftUpperArm
          {
            OFFSET 0.5985063006419806 0 0
            CHANNELS 3 Yrotation Xrotation Zrotation
            JOINT leftLowerArm
            {
              OFFSET 2.2993332369501065 0 0
              CHANNELS 3 Yrotation Xrotation Zrotation
              JOINT leftHand
              {
                OFFSET 2.395047042602395 0 0
                CHANNELS 3 Yrotation Xrotation Zrotation
                JOINT leftIndexProximal
                {
                  OFFSET 0.5766295810000004 0.04556643899499946 0.17265095988184
                  CHANNELS 3 Yrotation Xrotation Zrotation
                  JOINT leftIndexIntermediate
                  {
                    OFFSET 0.2957229000000008 -0.019352197700001517 -0.007932640616999987
                    CHANNELS 3 Yrotation Xrotation Zrotation
                    JOINT leftIndexDistal
                    {
                      OFFSET 0.19008243099999922 -0.012484908149998475 -0.002786250786000012
                      CHANNELS 3 Yrotation Xrotation Zrotation
                      End Site
                      {
                        OFFSET 0.19008243099999922 -0.012484908149998475 -0.002786250786000012
                      }
                    }
                  }
                }
                JOINT leftMiddleProximal
                {
                  OFFSET 0.5834975091000001 0.0524350405149987 0.02204081888183999
                  CHANNELS 3 Yrotation Xrotation Zrotation
                  JOINT leftMiddleIntermediate
                  {
                    OFFSET 0.33880573540000003 -0.019871473270000717 -0.00000971183179999946
                    CHANNELS 3 Yrotation Xrotation Zrotation
                    JOINT leftMiddleDistal
                    {
                      OFFSET 0.20676022730000088 -0.012221336379999448 0.0001471936708000235
                      CHANNELS 3 Yrotation Xrotation Zrotation
                      End Site
                      {
                        OFFSET 0.20676022730000088 -0.012221336379999448 0.0001471936708000235
                      }
                    }
                  }
                }
                JOINT leftLittleProximal
                {
                  OFFSET 0.5344154683999995 -0.012880921405001189 -0.24414037221816004
                  CHANNELS 3 Yrotation Xrotation Zrotation
                  JOINT leftLittleIntermediate
                  {
                    OFFSET 0.21758961730000093 -0.011650919939999227 0.011893592810000034
                    CHANNELS 3 Yrotation Xrotation Zrotation
                    JOINT leftLittleDistal
                    {
                      OFFSET 0.1475273964999999 -0.008152365682999818 0.006001092492999946
                      CHANNELS 3 Yrotation Xrotation Zrotation
                      End Site
                      {
                        OFFSET 0.1475273964999999 -0.008152365682999818 0.006001092492999946
                      }
                    }
                  }
                }
                JOINT leftRingProximal
                {
                  OFFSET 0.5799399463000003 0.026911854694997794 -0.12150566991816003
                  CHANNELS 3 Yrotation Xrotation Zrotation
                  JOINT leftRingIntermediate
                  {
                    OFFSET 0.26167887460000006 -0.013480186499999602 0.010996293000000053
                    CHANNELS 3 Yrotation Xrotation Zrotation
                    JOINT leftRingDistal
                    {
                      OFFSET 0.17667108799999987 -0.008990287899999228 0.0055541023999999065
                      CHANNELS 3 Yrotation Xrotation Zrotation
                      End Site
                      {
                        OFFSET 0.17667108799999987 -0.008990287899999228 0.0055541023999999065
                      }
                    }
                  }
                }
                JOINT leftThumbProximal
                {
                  OFFSET 0.11018806699999972 -0.09448718900500053 0.17047963138184
                  CHANNELS 3 Yrotation Xrotation Zrotation
                  JOINT leftThumbIntermediate
                  {
                    OFFSET 0.31062601459999983 -0.08126270900000132 0.15443142000000007
                    CHANNELS 3 Yrotation Xrotation Zrotation
                    JOINT leftThumbDistal
                    {
                      OFFSET 0.21627175790000086 -0.08833193599999878 0.018771167799999988
                      CHANNELS 3 Yrotation Xrotation Zrotation
                      End Site
                      {
                        OFFSET 0.21627175790000086 -0.08833193599999878 0.018771167799999988
                      }
                    }
                  }
                }
              }
            }
          }
        }
        JOINT neck
        {
          OFFSET 0 1.5463305265074576 0
          CHANNELS 3 Yrotation Xrotation Zrotation
          JOINT head
          {
            OFFSET 0 0.8456443600000344 0
            CHANNELS 3 Yrotation Xrotation Zrotation
            JOINT leftEye
            {
              OFFSET 0.30408573140000006 0.5104519199999995 0.1276382305
              CHANNELS 3 Yrotation Xrotation Zrotation
              End Site
              {
                OFFSET 0.30408573140000006 0.5104519199999995 0.1276382305
              }
            }
            JOINT rightEye
            {
              OFFSET -0.30409491089999996 0.5104519199999995 0.1276379445
              CHANNELS 3 Yrotation Xrotation Zrotation
              End Site
              {
                OFFSET -0.30409491089999996 0.5104519199999995 0.1276379445
              }
            }
            JOINT jaw
            {
              OFFSET -3.155239131000001e-7 -0.11984121820000082 0.60178107
              CHANNELS 3 Yrotation Xrotation Zrotation
              End Site
              {
                OFFSET -3.155239131000001e-7 -0.11984121820000082 0.60178107
              }
            }
          }
        }
        JOINT rightShoulder
        {
          OFFSET -0.1807303465 1.5087829790000005 0
          CHANNELS 3 Yrotation Xrotation Zrotation
          JOINT rightUpperArm
          {
            OFFSET -0.5985063796536958 0 0
            CHANNELS 3 Yrotation Xrotation Zrotation
            JOINT rightLowerArm
            {
              OFFSET -2.2993322059002854 0 0
              CHANNELS 3 Yrotation Xrotation Zrotation
              JOINT rightHand
              {
                OFFSET -2.395045314457259 0 0
                CHANNELS 3 Yrotation Xrotation Zrotation
                JOINT rightIndexProximal
                {
                  OFFSET -0.5764487688300002 0.0441371204405987 0.17361932004999997
                  CHANNELS 3 Yrotation Xrotation Zrotation
                  JOINT rightIndexIntermediate
                  {
                    OFFSET -0.29573011380000047 -0.01934826376999843 -0.007698921482999974
                    CHANNELS 3 Yrotation Xrotation Zrotation
                    JOINT rightIndexDistal
                    {
                      OFFSET -0.19008373999999884 -0.012503266380000655 -0.0026365778999999897
                      CHANNELS 3 Yrotation Xrotation Zrotation
                      End Site
                      {
                        OFFSET -0.19008373999999884 -0.012503266380000655 -0.0026365778999999897
                      }
                    }
                  }
                }
                JOINT rightMiddleProximal
                {
                  OFFSET -0.5834852037300005 0.05211639405060153 0.02307162440000001
                  CHANNELS 3 Yrotation Xrotation Zrotation
                  JOINT rightMiddleIntermediate
                  {
                    OFFSET -0.33880114510000003 -0.019952774050000954 0.0002455003561999819
                    CHANNELS 3 Yrotation Xrotation Zrotation
                    JOINT rightMiddleDistal
                    {
                      OFFSET -0.20675694929999955 -0.012273788999999091 0.00030209124000002766
                      CHANNELS 3 Yrotation Xrotation Zrotation
                      End Site
                      {
                        OFFSET -0.20675694929999955 -0.012273788999999091 0.00030209124000002766
                      }
                    }
                  }
                }
                JOINT rightLittleProximal
                {
                  OFFSET -0.5346811737299992 -0.011214256288399227 -0.24363941305000003
                  CHANNELS 3 Yrotation Xrotation Zrotation
                  JOINT rightLittleIntermediate
                  {
                    OFFSET -0.21757715980000092 -0.011771559690000988 0.01201554387
                    CHANNELS 3 Yrotation Xrotation Zrotation
                    JOINT rightLittleDistal
                    {
                      OFFSET -0.1475201849000004 -0.00822055339600003 0.006082065407000015
                      CHANNELS 3 Yrotation Xrotation Zrotation
                      End Site
                      {
                        OFFSET -0.1475201849000004 -0.00822055339600003 0.006082065407000015
                      }
                    }
                  }
                }
                JOINT rightRingProximal
                {
                  OFFSET -0.5800810755299999 0.027657985680600072 -0.12066365025000003
                  CHANNELS 3 Yrotation Xrotation Zrotation
                  JOINT rightRingIntermediate
                  {
                    OFFSET -0.26166445029999974 -0.013623118409999302 0.011164098990000045
                    CHANNELS 3 Yrotation Xrotation Zrotation
                    JOINT rightRingDistal
                    {
                      OFFSET -0.17666387530000027 -0.009072900100000503 0.005668185599999959
                      CHANNELS 3 Yrotation Xrotation Zrotation
                      End Site
                      {
                        OFFSET -0.17666387530000027 -0.009072900100000503 0.005668185599999959
                      }
                    }
                  }
                }
                JOINT rightThumbProximal
                {
                  OFFSET -0.10997596379000074 -0.09577489355940072 0.16989765924999997
                  CHANNELS 3 Yrotation Xrotation Zrotation
                  JOINT rightThumbIntermediate
                  {
                    OFFSET -0.31036620999999986 -0.08229339117999834 0.15440884469999996
                    CHANNELS 3 Yrotation Xrotation Zrotation
                    JOINT rightThumbDistal
                    {
                      OFFSET -0.21631306399999906 -0.08825326400000111 0.018656797720000014
                      CHANNELS 3 Yrotation Xrotation Zrotation
                      End Site
                      {
                        OFFSET -0.21631306399999906 -0.08825326400000111 0.018656797720000014
                      }
                    }
                  }
                }
              }
            }
          }
        }
      }
    }
  }
}
MOTION
Frames: 4
Frame Time: 0.03333333333333333
-0.005095759406685829 -0.15123878233642607 0.04868606850504875 -3.7145270241468755 3.8099199470221916 -0.5409448605807182 12.635036384319037 -9.819487898847008 7.4593784370979614 5.171948338961201 9.038794274987293 2.9264190135878287 0.3834040351853485 -2.2522617813004864 -9.624073054794923 0.000005842982333414158 0.028677120721733465 3.738781149302735e-7 -8.938951639019338 -9.058241064685646 -6.128228936754991 1.2781124830666044 4.87873350747078 -2.7879278227633018 -0.206170402497232 0.4351569762675263 10.286726410879243 0.000007405597413654623 -0.00007717620148172399 7.581810829671473e-7 0.3231912842353161 0.17003706192948617 0.16883831770302793 1.1073428114427801 1.0209526908889812 -0.30558438595007215 0 0 0 -11.51214412914305 1.5773374033124852 -9.726751477965063 -16.36642765929567 3.764108446806054 -65.43580326695506 -12.873880963167903 0.018604470128113212 0.1649132291839771 -2.0475885793298056 1.6842545084118803 -8.491918696199745 4.194197576242285 0.3987386433322376 -23.68459041884152 2.7042313547244334 0.7713365513279944 -31.836182189385248 1.7190996712588915 0.29688302464703364 -19.597220183497818 8.42133297126282 2.3959702445155022 -25.165778659743996 3.4185412308045957 1.306061816586443 -41.81126035758196 2.023563708644298 0.4163524659874334 -23.25257388748314 12.250504807918295 3.319001723834976 -44.97639401440347 2.385274719173862 0.5887947610272729 -27.730540351032214 0.89488330226493 0.07872521203147118 -10.056291100685879 8.091477267606194 2.933255526594637 -34.61191979104102 2.9855524766653017 0.9590841364047612 -35.6138737405841 2.1357034782567927 0.46613049468449114 -24.62328161666405 -5.776293005202488 0.6587859941998301 19.22944824702249 27.822864030191628 17.082762450476242 7.4169837764081 -0.9314205926580901 3.2689748061245494 3.922850351921487 -1.4480346295845699 -12.564214326425272 2.9709556665707297 3.1795447378830315 10.184585400472209 -2.062712833223549 0 0 0 0 0 0 0 0 0 15.003206407248234 2.028442193271521 11.164960374347693 4.09652799557773 -4.9450171785437815 65.94143137492964 7.533073695458646 0.00637898606953192 -0.09703704383075293 0.1605910833928988 10.819898409710182 8.086071912317893 -3.0150567001724986 0.22940182764954492 18.92984066247573 -1.9095201051846178 0.4960229111182953 29.11969918008106 -1.0565470957909953 0.14494205150394376 15.62239599518694 -0.9541266761994104 -0.7501196866851384 21.284986701837845 -2.344273346556856 0.777254436768843 36.68233672540265 -1.8613179965200555 0.46960488229272535 28.317357491154933 -0.651099711205423 -2.440340672936371 39.4413832567735 -1.9435437804277744 0.5151804167340158 29.689736702336944 -0.9208832945328776 0.10961112942350233 13.575022835536704 -2.2041099969562867 -1.1014250607863492 38.59650091570327 -1.509818551381124 0.3021388736655242 22.63150637948373 -1.4147254044900917 0.2639400936896816 21.13519450348582 -11.940377594105296 -13.202005151244181 -2.454999240534511 -21.221843509643485 12.81378999631703 -11.465887996406895 -4.427650707882788 3.1026651534779055 -22.40403405656125
-0.001875042449682951 -0.15180240385742216 0.0439537949860096 -3.5928900902755316 3.848382081458726 -0.49478732842504863 12.55945205069064 -10.016003375438217 7.373365433592505 5.106353831973048 9.291182677311397 2.937490602007552 0.3747808233289434 -2.370212241446516 -9.545344340726906 0.0000016592200589041317 0.022073005826353236 8.274428756962566e-7 -8.956692118630238 -9.158540977307041 -6.18815913100172 1.1947353482950573 4.95937875505403 -2.7973348283500594 -0.2169632482914493 0.42299615043737976 10.310373757375295 8.453223776260239e-7 -0.0235352367187066 8.429208296984385e-7 0.2919752121030755 0.17047314208479064 0.09961105175042788 1.0320279372561358 1.0269386000181315 -0.403395049961125 0 0 0 -11.598371560636547 1.572390370979169 -9.70802022321595 -16.392896479705822 3.769521539761825 -65.43630571558742 -12.9369893193148 0.01879302237937043 0.16572122574075707 -2.0583531869301117 1.6932969106713869 -8.507673292291477 4.225238961545588 0.4242579022916905 -23.852644409615735 2.704226876998502 0.7713374051790135 -31.83619449735411 1.719745990378673 0.29711341322461576 -19.604774996034347 8.388434189513454 2.390352850633166 -25.290716320727693 3.417945269109192 1.305528176197939 -41.80222047073025 2.0222619525689107 0.41579533731291024 -23.236741406959307 12.264709670915916 3.3125955944284136 -44.8250180816277 2.3844305981000944 0.5883539237619613 -27.720022244910037 0.8981955963160352 0.07930733946944603 -10.093892827700031 8.000767357180438 2.858602908373626 -34.45362175130723 2.9846329764020836 0.9584375257841595 -35.60109736748884 2.1176218960363076 0.45788773583780773 -24.401404237780362 -5.776293005202488 0.6587859941998301 19.22944824702249 27.893555295959988 17.09565504842017 7.413327835767658 -0.9263604969955771 3.2687911594283694 3.921081387235199 -1.4705946916527564 -12.562844517392282 2.985988846008309 3.097065629952437 10.181346389461856 -2.0814386651724757 0 0 0 0 0 0 0 0 0 14.913166534124088 2.036701459965816 11.198557447736986 4.186124436279092 -4.992829753506525 65.9662464192505 7.377455838409906 0.006128952952899511 -0.0950329273573487 0.3053732068970378 10.739436177175039 8.114743632246043 -3.024699760451738 0.2333207606780697 18.864686522203154 -1.9281700125432464 0.5064678440071666 29.432112551932246 -1.0570901941635211 0.14509235616775693 15.63035229407005 -0.9531714397766445 -0.7498370100311794 21.273250930236852 -2.344270787144095 0.7772519819437373 36.68232920707134 -1.8603451329084064 0.46907915353149243 28.301207508858628 -0.6511027164953179 -2.4403334092729723 39.44137844544808 -1.9435405804891008 0.5151777485835143 29.689736702336944 -0.9208866024845747 0.10961228335405773 13.575019515842072 -2.2187637525151875 -1.093934597214764 38.65459649256163 -1.5113984627225323 0.3028010910775045 22.656519148298997 -1.4147354333788533 0.2639433754169555 21.13519609618709 -11.940377594105296 -13.202005151244181 -2.454999240534511 -21.30956851000782 12.865946643167907 -11.450716754791605 -4.421297418923687 3.099517376320352 -22.417770167117776
0.010974831879138947 -0.15574012510986357 0.03025815263390541 -3.345375796506601 3.9215089235046943 -0.4428700467227728 12.330263189291154 -10.662340998034901 7.210963788091848 5.028253639962136 10.272361799284923 3.0282655681994726 0.3739603663380514 -2.8886322432728506 -9.415024388862717 -0.0000033012270497813964 -0.11126259752744544 -3.790301468874471e-7 -8.957174900910859 -9.506305995018336 -6.292754222124879 1.0255363038045002 5.3686331206763445 -2.8431458443268838 -0.25400205729445036 0.3372213529299994 10.407015012789456 0.0000034453517157943597 -0.0807273665312054 -8.99885985414614e-7 0.2297261010377193 0.19734792738751775 -0.019810973772327906 0.882055056469631 1.0950263460036038 -0.6003140550863793 0 0 0 -11.804081827339987 1.5560752934842654 -9.70583629120383 -16.47137588450092 3.716384582293249 -65.40530037827088 -13.080533822142648 0.01919159962440926 0.16750880004919888 -2.1121658313497407 1.7216899147564577 -8.502699302788315 4.317219298576747 0.5031486167675998 -24.32310947419358 2.7042290092489494 0.7713305743708655 -31.836169881416556 1.7077565014090343 0.29286223113274884 -19.462664315559724 8.319700692602824 2.3856436144719515 -25.64674115573716 3.4185883206737073 1.3061100673332975 -41.811857800190346 2.0211853933697603 0.4153340206058005 -23.22369304581356 12.233297947959677 3.223546251108221 -44.41402985626498 2.3936463403734405 0.5932140751629974 -27.83646466653291 0.9046897863971708 0.08047398227053781 -10.16757823890103 7.8297679725138165 2.7033751805755957 -33.90310068753901 2.9976669330974106 0.9677953532315694 -35.78045400077296 2.1017990648962654 0.4507388643580329 -24.207462355962193 -5.776293005202488 0.6587859941998301 19.22944824702249 28.183410336782327 17.149058885103376 7.398414967360377 -0.7794556212296873 3.2705389043781494 3.789499536213137 -1.523319733098586 -12.575268410167263 3.018837936528184 2.89600708611814 10.146054228164077 -2.053561309339746 0 0 0 0 0 0 0 0 0 14.71454971039992 2.0581442273674555 11.243854820420065 4.378722451886742 -5.11217593545592 65.99909448414067 7.15623157069359 0.00578415929879233 -0.09219589575141686 0.5795023858422891 10.538043948970943 8.162370674023519 -3.0305501633195737 0.23597679272430236 18.793462296811903 -1.9218807559810807 0.5029191028937567 29.32659755245181 -1.0563052417721353 0.14487221526437355 15.618634928183507 -0.941543663719233 -0.7539214413086084 21.265872210384806 -2.3442845770494904 0.7772692190852701 36.68235106333465 -1.8606185382429852 0.46922606088436325 28.30607583036785 -0.65110302236767 -2.440339177476256 39.44137099433643 -1.9435311940022546 0.5151813772681967 29.68974284423488 -0.9168250476180521 0.10862151059137404 13.514139283062125 -2.2153983020073924 -1.0958237028692879 38.643478945885896 -1.5093076982753306 0.3019322575723239 22.623245675950482 -1.4147242308967203 0.263941000833806 21.13519609618709 -11.940377594105296 -13.202005151244181 -2.454999240534511 -21.36351426506983 12.898089999527409 -11.441416975714228 -4.386937704479381 3.0982810117031705 -22.47010018432214
0.03549078479409218 -0.16251693480224638 0.010572049766778946 -3.2000523360713036 3.917702006858697 -0.4277122698169397 12.01860793224534 -11.498082704600114 7.028713209074517 5.111986864618188 11.788549285376696 3.2341163339239936 0.3846721207010774 -3.7294736601562013 -9.260307112847125 0.0000016494265629139986 -0.32814065010881166 -2.0183860500674272e-8 -8.92597059235916 -10.020463188327108 -6.419732038448373 0.9613228782200471 6.117135962892014 -2.908553685086431 -0.2993838328220637 0.2554885548922684 10.578765795001596 0.000004951393044489296 -0.2105495260784386 -0.0000047734884106914425 0.1893640874325716 0.29014065901003666 -0.13517740033147554 0.7814766651803483 1.3204242475384502 -0.8132877049403262 0 0 0 -12.023945684387991 1.5415878650187549 -9.677096895254417 -16.5968272295982 3.5431696483891097 -65.39997823791374 -13.259661255106774 0.01973218011343969 0.1697470182702104 -2.174559692042378 1.806737169879296 -8.395993079571882 4.415639572186158 0.5941047689691858 -24.766081309615586 2.7042362589004165 0.7713281729148785 -31.836154671857386 1.6997097845594984 0.2900289999942705 -19.367222499709463 8.32584886261207 2.403870097490287 -25.836134129668277 3.4221370394845416 1.3092669705355566 -41.864983247532315 2.0215111824158174 0.4154757507560955 -23.227659909882654 12.222560938718985 3.1733910945988626 -44.12779052215125 2.4082808038011696 0.600970442950249 -28.02131886576224 0.9112135889725045 0.08164766207461349 -10.241734277159289 7.764895260507893 2.6351990956403095 -33.530406215945874 2.999102419039915 0.9688288871030559 -35.80000318440361 2.0889559667439577 0.44498678889394344 -24.050097771826504 -5.776293005202488 0.6587859941998301 19.22944824702249 28.46553638394231 17.201895358532454 7.384030871856885 -0.627131581179505 3.2728393048215736 3.65477026475479 -1.5959372714108309 -12.591454574550047 3.0822621988912653 2.660778147720547 10.008554306796606 -1.9685291803579759 0 0 0 0 0 0 0 0 0 14.633468619914716 2.0682400288254286 11.255180480095346 4.594537819311781 -5.2337936102298555 65.96437359985212 6.996203264876379 0.005500139070915791 -0.09014489513018778 0.8631154165064194 10.280525920557233 8.200252824752237 -3.0310578311843446 0.2359000058059512 18.819490347269266 -1.9052413734715883 0.4936386592933957 29.048377796695885 -1.0563994613240968 0.1449014571052524 15.619969055994282 -0.9445804842417892 -0.753914397066208 21.28689627527895 -2.344286923177948 0.7772663906998126 36.682551207456775 -1.8616821814531148 0.46979869542295744 28.32354299177722 -0.6511043041078933 -2.440346441139687 39.44137844544808 -1.943544420415508 0.5151889014526184 29.689736702336944 -0.9173028896670741 0.10874063223964646 13.521305870807865 -2.2001578193680578 -1.1030724016991613 38.57573377220004 -1.5086062304885564 0.3016362341346852 22.612160387932683 -1.4147220970905874 0.26394326869411733 21.135186901287664 -11.940377594105296 -13.202005151244181 -2.454999240534511 -21.293732707931735 12.856500865511919 -11.453449588746347 -4.367786776526968 3.0935223894355373 -22.4931688330359
